# xmcd
#
# Track frame offsets:
#	150
#	13067
#	25950
#	38585
#	48585
#	60592
#	70993
#	81991
#	91855
#	103819
#	113701
#	126200
#	137385
#	148052
#	157108
#	166350
#	178986
#
# Disc length: 2574 seconds
#
# Revision: 2
# Processed by: cddbd v1.5.1PL2 Copyright (c) Steve Scherf et al.
# Submitted via: audiograbber 1.83.01
#
DISCID=ed0a0c11
DTITLE=Jim Reeves - Legendary [Disc 2]
DYEAR=1999
DGENRE=Country
TTITLE0=Four Walls
TTITLE1=Where Does A Broken Heart Go
TTITLE2=Not Until The Next Time
TTITLE3=I'm Beginning To Forget You
TTITLE4=Am I Losing You
TTITLE5=Losing Your Love
TTITLE6=I Love You More
TTITLE7=It Hurts So Much (To See You Go)
TTITLE8=Missing You
TTITLE9=Snowflake
TTITLE10=I Love You Because
TTITLE11=How Can I Write On Paper
TTITLE12=Two Shadows On Your Window
TTITLE13=Home
TTITLE14=I Won't Forget You
TTITLE15=Blue Side Of Lonesome
TTITLE16=Whispering Hope
EXTD=
EXTT0=
EXTT1=
EXTT2=
EXTT3=
EXTT4=
EXTT5=
EXTT6=
EXTT7=
EXTT8=
EXTT9=
EXTT10=
EXTT11=
EXTT12=
EXTT13=
EXTT14=
EXTT15=
EXTT16=
PLAYORDER=
